<?xml version="1.0" encoding="UTF-8"?>
<svg width="142px" height="142px" viewBox="0 0 142 142" version="1.1" xmlns="http://www.w3.org/2000/svg" xmlns:xlink="http://www.w3.org/1999/xlink">
    <!-- Generator: Sketch 62 (91390) - https://sketch.com -->
    <title>Icon/96px_2px/Functional/Check_Blue_Circle</title>
    <desc>Created with Sketch.</desc>
    <g id="Icon/96px_2px/Functional/Check_Blue_Circle" stroke="none" stroke-width="1" fill="none" fill-rule="evenodd">
        <path d="M71,0 C74.6221904,0 78.2106543,0.271320219 81.7448363,0.807899015 C116.2072,6.04016301 142,35.7889455 142,71 C142,110.212217 110.212217,142 71,142 C31.7877828,142 0,110.212217 0,71 C0,31.7877828 31.7877828,0 71,0 Z M71,2 C32.8923523,2 2,32.8923523 2,71 C2,109.107648 32.8923523,140 71,140 C109.107648,140 140,109.107648 140,71 C140,36.7812003 114.933088,7.86964014 81.4446257,2.78523905 C78.0097179,2.26373261 74.5216073,2 71,2 Z M97.65,41.02 C99.4835358,40.8714845 101.29586,41.494924 102.65,42.74 C105.517532,45.3475698 105.863469,49.7352754 103.44,52.76 L103.44,52.76 L67.98,97.76 C66.3547316,99.8175219 63.8770019,101.017818 61.255,101.017818 C58.6329981,101.017818 56.1552684,99.8175219 54.53,97.76 L54.53,97.76 L36.63,74.37 C34.2642644,71.3798009 34.5860172,67.0752706 37.37,64.47 C38.7231252,63.222369 40.5351641,62.5954036 42.37,62.74 C44.2405748,62.9002849 45.9573507,63.8403377 47.1,65.33 L47.1,65.33 L61.22,83.7 L92.93,43.57 L93.1159879,43.3422756 C94.2592351,42.0035841 95.8877284,41.1661982 97.65,41.02 Z M98.0565358,42.9869398 L97.8,43 C96.4874805,43.1155846 95.2833835,43.7756619 94.48,44.82 L94.48,44.82 L61.99,85.93 C61.8013526,86.1687374 61.514272,86.3085972 61.21,86.31 L61.21,86.31 L61.0786957,86.3010324 C60.8192578,86.2660445 60.5818222,86.1302117 60.42,85.92 L60.42,85.92 L45.52,66.54 C44.7174349,65.4947068 43.5128845,64.834381 42.2,64.72 L42.2,64.72 L41.81,64.72 C40.649193,64.7222228 39.5317605,65.1613416 38.68,65.95 C36.6632101,67.8426689 36.436973,70.9664808 38.16,73.13 L38.16,73.13 L56.06,96.44 C57.3059967,98.0169246 59.2052242,98.9368102 61.215,98.9368102 C63.2247758,98.9368102 65.1240033,98.0169246 66.37,96.44 L66.37,96.44 L101.83,51.44 C103.576796,49.2639581 103.34545,46.1080487 101.3,44.21 C100.352456,43.3373403 99.0841923,42.8988833 97.8,43 Z" id="Combined-Shape" fill="#00008F" fill-rule="nonzero"></path>
    </g>
</svg>