<svg width="12" height="14" viewBox="0 0 12 14" fill="none" xmlns="http://www.w3.org/2000/svg">
<path d="M10.001 9.39111C9.51622 9.39135 9.04912 9.5732 8.69178 9.90081L3.94457 7.14243C3.98157 6.9885 4.00167 6.831 4.00454 6.67271C4.00167 6.51442 3.98157 6.35691 3.94457 6.20298L8.64181 3.4646C9.33626 4.10863 10.3874 4.17688 11.1593 3.62805C11.9312 3.07921 12.2119 2.06398 11.8317 1.19654C11.4514 0.329102 10.5146 -0.152389 9.5879 0.0433556C8.66122 0.2391 7.99914 1.05834 8.00218 2.00546C8.00505 2.16374 8.02515 2.32125 8.06215 2.47518L3.36491 5.21357C2.57153 4.47078 1.33004 4.49803 0.570016 5.27492C-0.190005 6.05181 -0.190005 7.2936 0.570016 8.07049C1.33004 8.84738 2.57153 8.87464 3.36491 8.13185L8.11212 10.9002C8.07897 11.0411 8.0622 11.1853 8.06215 11.33C8.05811 12.12 8.53144 12.8343 9.26058 13.1385C9.98972 13.4427 10.8304 13.2766 11.389 12.718C11.9477 12.1593 12.1138 11.3187 11.8096 10.5895C11.5054 9.8604 10.791 9.38707 10.001 9.39111Z" fill="white"/>
</svg>
