<svg width="20" height="20" viewBox="0 0 20 20" fill="none" xmlns="http://www.w3.org/2000/svg">
<path fill-rule="evenodd" clip-rule="evenodd" d="M0.769231 2C0.344396 2 0 2.33579 0 2.75C0 3.16421 0.344396 3.5 0.769231 3.5H19.2308C19.6556 3.5 20 3.16421 20 2.75C20 2.33579 19.6556 2 19.2308 2H0.769231ZM0 9.75C0 9.33579 0.344396 9 0.769231 9H19.2308C19.6556 9 20 9.33579 20 9.75C20 10.1642 19.6556 10.5 19.2308 10.5H0.769231C0.344396 10.5 0 10.1642 0 9.75ZM0 16.75C0 16.3358 0.344396 16 0.769231 16H19.2308C19.6556 16 20 16.3358 20 16.75C20 17.1642 19.6556 17.5 19.2308 17.5H0.769231C0.344396 17.5 0 17.1642 0 16.75Z" fill="#00008F"/>
</svg>
